<?xml version="1.0" standalone="no"?>
<!DOCTYPE svg PUBLIC "-//W3C//DTD SVG 20010904//EN"
 "http://www.w3.org/TR/2001/REC-SVG-20010904/DTD/svg10.dtd">
<svg version="1.0" xmlns="http://www.w3.org/2000/svg"
 width="169.000000pt" height="140.000000pt" viewBox="0 0 169.000000 140.000000"
 preserveAspectRatio="xMidYMid meet">

<g transform="translate(0.000000,140.000000) scale(0.100000,-0.100000)"
fill="#000000" stroke="none">
<path d="M352 1008 c-31 -31 2 -71 56 -68 51 4 60 0 66 -27 8 -31 48 -138 75
-198 10 -22 22 -51 25 -65 4 -14 11 -34 16 -45 5 -11 14 -32 20 -47 l10 -28
187 0 c169 -1 190 -3 211 -19 29 -25 28 -55 -4 -80 -25 -20 -40 -21 -219 -21
-163 0 -195 -2 -206 -16 -9 -11 -10 -20 -2 -32 9 -15 36 -17 234 -17 l224 0
29 30 c41 41 49 122 17 166 l-21 29 65 117 c36 64 64 124 63 132 -3 14 -42 17
-305 21 -340 6 -317 0 -344 85 -7 22 -19 52 -28 68 -14 25 -19 27 -86 27 -42
0 -76 -5 -83 -12z"/>
<path d="M695 248 c-46 -36 -27 -88 32 -88 57 0 70 72 18 97 -21 9 -29 8 -50
-9z"/>
<path d="M940 257 c-28 -14 -39 -59 -19 -83 6 -8 24 -14 39 -14 34 0 52 21 48
56 -4 38 -36 57 -68 41z"/>
</g>
</svg>
