<?xml version="1.0" encoding="UTF-8"?>
<!DOCTYPE svg PUBLIC "-//W3C//DTD SVG 1.1//EN" "http://www.w3.org/Graphics/SVG/1.1/DTD/svg11.dtd">
<svg xmlns="http://www.w3.org/2000/svg" version="1.1" width="248px" height="293px" style="shape-rendering:geometricPrecision; text-rendering:geometricPrecision; image-rendering:optimizeQuality; fill-rule:evenodd; clip-rule:evenodd" xmlns:xlink="http://www.w3.org/1999/xlink">
<g><path style="opacity:0.129" fill="#f7cf89" d="M 135.5,-0.5 C 137.5,-0.5 139.5,-0.5 141.5,-0.5C 143.833,0.833333 146.167,2.16667 148.5,3.5C 143.951,2.53684 139.617,1.2035 135.5,-0.5 Z"/></g>
<g><path style="opacity:0.106" fill="#f6d18f" d="M 151.5,5.5 C 154.089,5.46095 156.089,6.46095 157.5,8.5C 155.181,8.00751 153.181,7.00751 151.5,5.5 Z"/></g>
<g><path style="opacity:0.243" fill="#f7d387" d="M 157.5,8.5 C 161.522,10.5216 164.522,13.5216 166.5,17.5C 164.135,15.1397 161.468,13.1397 158.5,11.5C 157.614,10.675 157.281,9.67504 157.5,8.5 Z"/></g>
<g><path style="opacity:1" fill="#faba1e" d="M 121.5,-0.5 C 126.167,-0.5 130.833,-0.5 135.5,-0.5C 139.617,1.2035 143.951,2.53684 148.5,3.5C 150.027,3.42702 151.027,4.09368 151.5,5.5C 153.181,7.00751 155.181,8.00751 157.5,8.5C 157.281,9.67504 157.614,10.675 158.5,11.5C 161.468,13.1397 164.135,15.1397 166.5,17.5C 166.594,20.9846 167.761,23.9846 170,26.5C 171.011,27.3366 172.178,27.67 173.5,27.5C 175.44,34.7175 176.774,42.0508 177.5,49.5C 176.5,49.5 175.5,49.5 174.5,49.5C 174.649,48.448 174.483,47.448 174,46.5C 173.017,48.4484 171.85,50.2817 170.5,52C 142.5,52.3333 114.5,52.6667 86.5,53C 85,55.1667 83.8333,55 83,52.5C 82.5488,54.9288 81.7155,55.0955 80.5,53C 81,52.5 81.5,52 82,51.5C 83.5376,46.2414 84.2042,40.9081 84,35.5C 83,34.5 82,33.5 81,32.5C 79.9849,37.4685 79.1516,42.4685 78.5,47.5C 77.9904,49.0879 76.9904,50.2545 75.5,51C 67.8406,51.4997 60.1739,51.6664 52.5,51.5C 59.5,50.8333 66.5,50.1667 73.5,49.5C 74.5862,49.38 75.2528,48.7133 75.5,47.5C 76.2779,40.9987 77.7779,34.6654 80,28.5C 84.3679,22.9677 88.5346,17.3011 92.5,11.5C 97.375,8.46114 102.375,5.6278 107.5,3C 112.465,2.43161 117.131,1.26495 121.5,-0.5 Z M 151.5,18.5 C 159.443,25.7779 164.443,35.1112 166.5,46.5C 165.596,47.209 165.263,48.209 165.5,49.5C 139.5,49.5 113.5,49.5 87.5,49.5C 89.3426,25.9904 102.009,12.9904 125.5,10.5C 134.938,10.8984 143.605,13.565 151.5,18.5 Z"/></g>
<g><path style="opacity:0.333" fill="#f9d281" d="M 146.5,13.5 C 148.785,14.4787 150.452,16.1453 151.5,18.5C 143.605,13.565 134.938,10.8984 125.5,10.5C 102.009,12.9904 89.3426,25.9904 87.5,49.5C 86.8333,49.5 86.1667,49.5 85.5,49.5C 89.6775,18.9918 107.011,5.99181 137.5,10.5C 140.725,11.1972 143.725,12.1972 146.5,13.5 Z"/></g>
<g><path style="opacity:0.945" fill="#facc65" d="M 166.5,17.5 C 169.815,20.1251 172.149,23.4584 173.5,27.5C 172.178,27.67 171.011,27.3366 170,26.5C 167.761,23.9846 166.594,20.9846 166.5,17.5 Z"/></g>
<g><path style="opacity:0.243" fill="#f9d17d" d="M 112.5,-0.5 C 115.5,-0.5 118.5,-0.5 121.5,-0.5C 117.131,1.26495 112.465,2.43161 107.5,3C 102.375,5.6278 97.375,8.46114 92.5,11.5C 88.5346,17.3011 84.3679,22.9677 80,28.5C 77.7779,34.6654 76.2779,40.9987 75.5,47.5C 75.2528,48.7133 74.5862,49.38 73.5,49.5C 74.5366,38.8938 78.0366,28.5604 84,18.5C 91.626,9.27618 101.126,2.94285 112.5,-0.5 Z"/></g>
<g><path style="opacity:0.549" fill="#fad172" d="M 173.5,27.5 C 176.554,32.6698 178.22,38.3365 178.5,44.5C 178.261,46.4672 178.594,48.3005 179.5,50C 187.344,50.171 195.011,50.671 202.5,51.5C 193.766,52.135 185.433,51.4684 177.5,49.5C 176.774,42.0508 175.44,34.7175 173.5,27.5 Z"/></g>
<g><path style="opacity:0.329" fill="#f2b67d" d="M 247.5,40.5 C 247.5,40.8333 247.5,41.1667 247.5,41.5C 245.255,42.8173 243.255,44.484 241.5,46.5C 239.026,47.3195 236.693,48.3195 234.5,49.5C 238.553,46.1173 242.886,43.1173 247.5,40.5 Z"/></g>
<g><path style="opacity:0.541" fill="#fbcb5c" d="M 146.5,13.5 C 149.55,12.9232 151.55,14.0899 152.5,17C 153.448,17.4828 154.448,17.6495 155.5,17.5C 155.5,18.8333 155.5,20.1667 155.5,21.5C 156.833,21.5 158.167,21.5 159.5,21.5C 162.289,25.829 164.789,30.4957 167,35.5C 167.336,39.6888 167.836,43.8555 168.5,48C 168.415,49.1074 168.081,50.1074 167.5,51C 140.5,51.6667 113.5,51.6667 86.5,51C 85.944,50.6174 85.6107,50.1174 85.5,49.5C 86.1667,49.5 86.8333,49.5 87.5,49.5C 113.663,50.6635 139.997,50.8302 166.5,50C 167.791,48.7083 167.791,47.5417 166.5,46.5C 164.443,35.1112 159.443,25.7779 151.5,18.5C 150.452,16.1453 148.785,14.4787 146.5,13.5 Z"/></g>
<g><path style="opacity:1" fill="#ed8023" d="M 247.5,41.5 C 247.5,57.5 247.5,73.5 247.5,89.5C 246.127,89.3433 244.793,89.51 243.5,90C 241.133,92.5062 238.799,95.0062 236.5,97.5C 235.127,97.3433 233.793,97.51 232.5,98C 226.792,102.913 220.459,106.913 213.5,110C 212.663,111.011 212.33,112.178 212.5,113.5C 209.089,114.723 205.756,116.223 202.5,118C 199.14,120.244 196.14,122.744 193.5,125.5C 189.753,126.732 186.086,128.232 182.5,130C 181.663,131.011 181.33,132.178 181.5,133.5C 177.863,134.775 174.196,136.108 170.5,137.5C 170.567,140.766 168.901,142.266 165.5,142C 156.544,150.3 146.544,156.966 135.5,162C 133.582,164.731 131.582,167.231 129.5,169.5C 125.098,170.243 121.098,171.91 117.5,174.5C 116.37,175.622 115.703,176.956 115.5,178.5C 114.06,179.363 112.726,179.363 111.5,178.5C 110.614,179.325 110.281,180.325 110.5,181.5C 104.691,183.905 99.0239,186.572 93.5,189.5C 93.719,190.675 93.3857,191.675 92.5,192.5C 90.246,193.124 88.5794,194.457 87.5,196.5C 85.8849,197.154 84.2182,197.654 82.5,198C 80.3668,200.51 77.8668,202.676 75,204.5C 74.5357,205.094 74.369,205.761 74.5,206.5C 70.8733,207.28 67.54,208.78 64.5,211C 63.7476,211.671 63.4142,212.504 63.5,213.5C 62.1779,213.67 61.0113,213.337 60,212.5C 59.3658,209.445 59.5325,206.445 60.5,203.5C 61.4959,203.586 62.3292,203.252 63,202.5C 62.964,194.51 64.2973,186.843 67,179.5C 67.4992,174.845 67.6658,170.179 67.5,165.5C 67.5,164.833 67.5,164.167 67.5,163.5C 72.1386,159.843 77.1386,156.676 82.5,154C 84.9071,151.817 87.2404,149.65 89.5,147.5C 97.7896,145.687 104.456,141.354 109.5,134.5C 112.674,133.99 115.008,132.323 116.5,129.5C 123.19,127.82 128.524,124.154 132.5,118.5C 137.519,115.99 142.519,113.49 147.5,111C 150.797,108.705 153.797,106.038 156.5,103C 163.7,100.751 169.367,96.5844 173.5,90.5C 176.285,91.0838 177.952,90.0838 178.5,87.5C 181.198,87.1551 183.198,85.8218 184.5,83.5C 188.392,81.9379 191.725,79.6046 194.5,76.5C 197.598,75.7841 200.264,74.2841 202.5,72C 203.793,71.51 205.127,71.3433 206.5,71.5C 206.392,69.4862 207.058,67.8195 208.5,66.5C 213.811,65.5748 218.145,63.0748 221.5,59C 227.141,57.5256 231.474,54.359 234.5,49.5C 236.693,48.3195 239.026,47.3195 241.5,46.5C 243.255,44.484 245.255,42.8173 247.5,41.5 Z"/></g>
<g><path style="opacity:1" fill="#fbb713" d="M 177.5,49.5 C 185.433,51.4684 193.766,52.135 202.5,51.5C 203.5,51.5 204.5,51.5 205.5,51.5C 205.662,53.5273 205.495,55.5273 205,57.5C 201.339,59.7361 197.839,62.0694 194.5,64.5C 190.514,66.9901 186.18,68.6568 181.5,69.5C 181.5,70.8333 181.5,72.1667 181.5,73.5C 180.167,73.5 178.833,73.5 177.5,73.5C 177.5,74.8333 177.5,76.1667 177.5,77.5C 173.825,77.5003 171.159,79.167 169.5,82.5C 165.773,83.3725 162.107,84.5392 158.5,86C 157.663,87.0113 157.33,88.1779 157.5,89.5C 156.167,89.5 154.833,89.5 153.5,89.5C 153.719,90.675 153.386,91.675 152.5,92.5C 145.506,95.7833 139.173,99.95 133.5,105C 132.207,105.49 130.873,105.657 129.5,105.5C 129.5,106.833 129.5,108.167 129.5,109.5C 125.242,110.801 121.242,112.467 117.5,114.5C 117.5,115.5 117.5,116.5 117.5,117.5C 116.167,117.5 114.833,117.5 113.5,117.5C 110.882,119.274 107.882,120.274 104.5,120.5C 104.56,124.485 102.56,126.152 98.5,125.5C 98.5,126.833 98.5,128.167 98.5,129.5C 95.0504,128.756 93.3838,130.09 93.5,133.5C 90.039,132.889 87.3723,134.056 85.5,137C 84.552,137.483 83.552,137.649 82.5,137.5C 82.67,138.822 82.3366,139.989 81.5,141C 79.5643,141.813 77.5643,142.313 75.5,142.5C 75.5,143.5 75.5,144.5 75.5,145.5C 73.5,145.5 71.5,145.5 69.5,145.5C 69.5,146.833 69.5,148.167 69.5,149.5C 67.1432,149.337 64.8098,149.503 62.5,150C 61.5531,152.728 60.2197,155.228 58.5,157.5C 56.1667,157.5 53.8333,157.5 51.5,157.5C 51.719,158.675 51.3857,159.675 50.5,160.5C 47.1957,160.678 45.5291,162.344 45.5,165.5C 41.756,165.928 38.756,167.595 36.5,170.5C 35.8333,171.833 34.8333,172.833 33.5,173.5C 32.2057,171.952 31.5391,169.952 31.5,167.5C 30.933,163.509 32.0996,160.175 35,157.5C 35.4995,151.175 35.6662,144.842 35.5,138.5C 34.9939,133.843 35.8272,129.51 38,125.5C 38.8871,117.855 39.3871,110.189 39.5,102.5C 41.61,101.547 42.7767,99.8808 43,97.5C 43.4589,89.8247 43.9589,82.158 44.5,74.5C 45.5027,67.1467 46.6694,59.8133 48,52.5C 49.3561,51.6198 50.8561,51.2865 52.5,51.5C 60.1739,51.6664 67.8406,51.4997 75.5,51C 76.9904,50.2545 77.9904,49.0879 78.5,47.5C 79.1516,42.4685 79.9849,37.4685 81,32.5C 82,33.5 83,34.5 84,35.5C 84.2042,40.9081 83.5376,46.2414 82,51.5C 81.5,52 81,52.5 80.5,53C 81.7155,55.0955 82.5488,54.9288 83,52.5C 83.8333,55 85,55.1667 86.5,53C 114.5,52.6667 142.5,52.3333 170.5,52C 171.85,50.2817 173.017,48.4484 174,46.5C 174.483,47.448 174.649,48.448 174.5,49.5C 175.5,49.5 176.5,49.5 177.5,49.5 Z"/></g>
<g><path style="opacity:0.082" fill="#f9d690" d="M 166.5,46.5 C 167.791,47.5417 167.791,48.7083 166.5,50C 139.997,50.8302 113.663,50.6635 87.5,49.5C 113.5,49.5 139.5,49.5 165.5,49.5C 165.263,48.209 165.596,47.209 166.5,46.5 Z"/></g>
<g><path style="opacity:0.333" fill="#f9d284" d="M 73.5,49.5 C 66.5,50.1667 59.5,50.8333 52.5,51.5C 50.8561,51.2865 49.3561,51.6198 48,52.5C 46.6694,59.8133 45.5027,67.1467 44.5,74.5C 43.8333,75.8333 43.1667,77.1667 42.5,78.5C 43.189,70.3888 44.5224,62.3888 46.5,54.5C 45.3318,53.0944 45.6652,51.9277 47.5,51C 56.0578,49.5592 64.7244,49.0592 73.5,49.5 Z"/></g>
<g><path style="opacity:0.153" fill="#f8d288" d="M 178.5,44.5 C 179.234,45.8775 179.901,47.3775 180.5,49C 189.078,49.182 197.578,49.682 206,50.5C 208,53.1667 208,55.8333 206,58.5C 202.031,61.5623 197.864,64.229 193.5,66.5C 193.833,65.8333 194.167,65.1667 194.5,64.5C 197.839,62.0694 201.339,59.7361 205,57.5C 205.495,55.5273 205.662,53.5273 205.5,51.5C 204.5,51.5 203.5,51.5 202.5,51.5C 195.011,50.671 187.344,50.171 179.5,50C 178.594,48.3005 178.261,46.4672 178.5,44.5 Z"/></g>
<g><path style="opacity:0.804" fill="#f2b072" d="M 234.5,49.5 C 231.474,54.359 227.141,57.5256 221.5,59C 218.145,63.0748 213.811,65.5748 208.5,66.5C 216.817,60.3388 225.483,54.6721 234.5,49.5 Z"/></g>
<g><path style="opacity:1" fill="#fac652" d="M 194.5,64.5 C 194.167,65.1667 193.833,65.8333 193.5,66.5C 191.853,68.3264 189.853,69.6597 187.5,70.5C 184.454,70.1826 182.787,71.5159 182.5,74.5C 181.078,75.925 179.411,76.925 177.5,77.5C 177.5,76.1667 177.5,74.8333 177.5,73.5C 178.833,73.5 180.167,73.5 181.5,73.5C 181.5,72.1667 181.5,70.8333 181.5,69.5C 186.18,68.6568 190.514,66.9901 194.5,64.5 Z"/></g>
<g><path style="opacity:0.541" fill="#f6ce7f" d="M 187.5,70.5 C 185.858,71.803 184.191,73.1363 182.5,74.5C 182.787,71.5159 184.454,70.1826 187.5,70.5 Z"/></g>
<g><path style="opacity:0.369" fill="#f3b478" d="M 208.5,66.5 C 207.058,67.8195 206.392,69.4862 206.5,71.5C 205.127,71.3433 203.793,71.51 202.5,72C 200.264,74.2841 197.598,75.7841 194.5,76.5C 198.883,72.7859 203.55,69.4525 208.5,66.5 Z"/></g>
<g><path style="opacity:0.369" fill="#f4b77b" d="M 194.5,76.5 C 191.725,79.6046 188.392,81.9379 184.5,83.5C 187.275,80.3954 190.608,78.0621 194.5,76.5 Z"/></g>
<g><path style="opacity:0.514" fill="#f9d07b" d="M 177.5,77.5 C 175.371,79.9501 172.704,81.6167 169.5,82.5C 171.159,79.167 173.825,77.5003 177.5,77.5 Z"/></g>
<g><path style="opacity:0.412" fill="#f4ba7e" d="M 184.5,83.5 C 183.198,85.8218 181.198,87.1551 178.5,87.5C 180.147,85.6736 182.147,84.3403 184.5,83.5 Z"/></g>
<g><path style="opacity:0.294" fill="#f8d286" d="M 42.5,78.5 C 42.6659,83.5111 42.4993,88.5111 42,93.5C 41.3918,95.0664 40.5585,96.3998 39.5,97.5C 40.1979,90.9861 41.1979,84.6528 42.5,78.5 Z"/></g>
<g><path style="opacity:0.953" fill="#faca63" d="M 169.5,82.5 C 156.204,91.487 142.87,100.487 129.5,109.5C 129.5,108.167 129.5,106.833 129.5,105.5C 130.873,105.657 132.207,105.49 133.5,105C 139.173,99.95 145.506,95.7833 152.5,92.5C 153.386,91.675 153.719,90.675 153.5,89.5C 154.833,89.5 156.167,89.5 157.5,89.5C 157.33,88.1779 157.663,87.0113 158.5,86C 162.107,84.5392 165.773,83.3725 169.5,82.5 Z"/></g>
<g><path style="opacity:0.286" fill="#f1b27b" d="M 178.5,87.5 C 177.952,90.0838 176.285,91.0838 173.5,90.5C 174.659,88.7497 176.326,87.7497 178.5,87.5 Z"/></g>
<g><path style="opacity:0.976" fill="#f2ad6e" d="M 173.5,90.5 C 169.367,96.5844 163.7,100.751 156.5,103C 153.797,106.038 150.797,108.705 147.5,111C 142.519,113.49 137.519,115.99 132.5,118.5C 145.985,108.922 159.652,99.589 173.5,90.5 Z"/></g>
<g><path style="opacity:0.09" fill="#f4bb81" d="M 247.5,89.5 C 247.5,90.1667 247.5,90.8333 247.5,91.5C 243.716,93.2263 240.05,95.2263 236.5,97.5C 238.799,95.0062 241.133,92.5062 243.5,90C 244.793,89.51 246.127,89.3433 247.5,89.5 Z"/></g>
<g><path style="opacity:1" fill="#fbc74c" d="M 44.5,74.5 C 43.9589,82.158 43.4589,89.8247 43,97.5C 42.7767,99.8808 41.61,101.547 39.5,102.5C 39.5,101.167 39.5,99.8333 39.5,98.5C 39.5,98.1667 39.5,97.8333 39.5,97.5C 40.5585,96.3998 41.3918,95.0664 42,93.5C 42.4993,88.5111 42.6659,83.5111 42.5,78.5C 43.1667,77.1667 43.8333,75.8333 44.5,74.5 Z"/></g>
<g><path style="opacity:0.639" fill="#f8cc70" d="M 129.5,109.5 C 125.777,112.551 121.777,115.218 117.5,117.5C 117.5,116.5 117.5,115.5 117.5,114.5C 121.242,112.467 125.242,110.801 129.5,109.5 Z"/></g>
<g><path style="opacity:0.369" fill="#f2b479" d="M 236.5,97.5 C 229.253,103.469 221.586,108.969 213.5,114C 206.942,118.11 200.275,121.943 193.5,125.5C 196.14,122.744 199.14,120.244 202.5,118C 205.756,116.223 209.089,114.723 212.5,113.5C 212.33,112.178 212.663,111.011 213.5,110C 220.459,106.913 226.792,102.913 232.5,98C 233.793,97.51 235.127,97.3433 236.5,97.5 Z"/></g>
<g><path style="opacity:0.639" fill="#face75" d="M 113.5,117.5 C 114.833,117.5 116.167,117.5 117.5,117.5C 116.101,118.89 114.434,119.89 112.5,120.5C 113.11,119.609 113.443,118.609 113.5,117.5 Z"/></g>
<g><path style="opacity:1" fill="#fbc242" d="M 113.5,117.5 C 113.443,118.609 113.11,119.609 112.5,120.5C 112.5,121.167 112.167,121.5 111.5,121.5C 108.478,121.342 106.478,122.675 105.5,125.5C 101.795,128.526 97.795,131.192 93.5,133.5C 93.3838,130.09 95.0504,128.756 98.5,129.5C 98.5,128.167 98.5,126.833 98.5,125.5C 102.56,126.152 104.56,124.485 104.5,120.5C 107.882,120.274 110.882,119.274 113.5,117.5 Z"/></g>
<g><path style="opacity:0.745" fill="#f8ce77" d="M 111.5,121.5 C 109.777,123.218 107.777,124.551 105.5,125.5C 106.478,122.675 108.478,121.342 111.5,121.5 Z"/></g>
<g><path style="opacity:0.961" fill="#f2ac6a" d="M 132.5,118.5 C 128.524,124.154 123.19,127.82 116.5,129.5C 121.477,125.342 126.811,121.676 132.5,118.5 Z"/></g>
<g><path style="opacity:0.504" fill="#f9d075" d="M 39.5,98.5 C 39.5,99.8333 39.5,101.167 39.5,102.5C 39.3871,110.189 38.8871,117.855 38,125.5C 35.8272,129.51 34.9939,133.843 35.5,138.5C 34.9851,140.751 33.9851,142.751 32.5,144.5C 32.9135,140.184 32.9135,136.351 32.5,133C 34.487,128.425 35.1537,123.758 34.5,119C 36.3501,117.155 36.6834,115.155 35.5,113C 36.1667,111.333 36.8333,109.667 37.5,108C 37.5,105.667 37.5,103.333 37.5,101C 38.0659,100.005 38.7326,99.172 39.5,98.5 Z"/></g>
<g><path style="opacity:0.329" fill="#f3bd82" d="M 116.5,129.5 C 115.008,132.323 112.674,133.99 109.5,134.5C 111.55,132.453 113.883,130.786 116.5,129.5 Z"/></g>
<g><path style="opacity:1" fill="#f1a765" d="M 109.5,134.5 C 104.456,141.354 97.7896,145.687 89.5,147.5C 95.8174,142.672 102.484,138.338 109.5,134.5 Z"/></g>
<g><path style="opacity:1" fill="#0aa8d0" d="M 193.5,139.5 C 193.498,144.815 192.332,149.815 190,154.5C 189.667,162.833 189.333,171.167 189,179.5C 187.369,183.688 186.536,188.021 186.5,192.5C 181.215,197.81 175.215,202.144 168.5,205.5C 166.345,205.372 164.345,205.872 162.5,207C 157.56,210.864 152.394,214.364 147,217.5C 146.667,217.167 146.333,216.833 146,216.5C 145.51,217.793 145.343,219.127 145.5,220.5C 143.821,220.285 142.821,220.952 142.5,222.5C 123.78,235.883 104.78,248.883 85.5,261.5C 81.3458,261.942 77.3458,262.942 73.5,264.5C 73.762,265.978 73.4287,267.311 72.5,268.5C 68.1084,271.209 63.7751,273.875 59.5,276.5C 59.5,277.5 59.5,278.5 59.5,279.5C 52.9559,283.599 46.6226,287.932 40.5,292.5C 26.8333,292.5 13.1667,292.5 -0.5,292.5C -0.5,283.833 -0.5,275.167 -0.5,266.5C 1.5273,266.662 3.5273,266.495 5.5,266C 6.99202,263.57 8.99202,261.737 11.5,260.5C 15.1636,260.113 18.1636,258.613 20.5,256C 26.98,253.801 31.6466,249.634 34.5,243.5C 37.5993,243.908 39.9326,242.741 41.5,240C 49.6024,237.601 56.4357,233.768 62,228.5C 62.4828,227.552 62.6495,226.552 62.5,225.5C 65.054,224.394 67.7206,223.561 70.5,223C 72.7535,220.667 75.0868,218.333 77.5,216C 86.0008,212.791 94.0008,208.791 101.5,204C 103.609,200.273 106.942,198.606 111.5,199C 113.125,198.147 113.458,197.147 112.5,196C 115.209,193.325 117.876,190.658 120.5,188C 125.203,187.209 128.869,185.709 131.5,183.5C 131.253,181.142 131.919,179.142 133.5,177.5C 140.221,173.532 147.221,170.032 154.5,167C 155.737,164.1 157.404,161.6 159.5,159.5C 160.873,159.657 162.207,159.49 163.5,159C 169.314,155.338 175.147,152.505 181,150.5C 184.761,146.23 188.928,142.563 193.5,139.5 Z"/></g>
<g><path style="opacity:0.365" fill="#a9a9a9" d="M 247.5,143.5 C 247.5,150.5 247.5,157.5 247.5,164.5C 246.776,162.782 246.109,160.948 245.5,159C 245.5,154.333 245.5,149.667 245.5,145C 246.044,144.283 246.711,143.783 247.5,143.5 Z"/></g>
<g><path style="opacity:1" fill="#fac95d" d="M 93.5,133.5 C 82.3627,142.238 70.6961,150.238 58.5,157.5C 60.2197,155.228 61.5531,152.728 62.5,150C 64.8098,149.503 67.1432,149.337 69.5,149.5C 69.5,148.167 69.5,146.833 69.5,145.5C 71.5,145.5 73.5,145.5 75.5,145.5C 75.5,144.5 75.5,143.5 75.5,142.5C 77.5643,142.313 79.5643,141.813 81.5,141C 82.3366,139.989 82.67,138.822 82.5,137.5C 83.552,137.649 84.552,137.483 85.5,137C 87.3723,134.056 90.039,132.889 93.5,133.5 Z"/></g>
<g><path style="opacity:1" fill="#56bcd8" d="M 193.5,139.5 C 188.928,142.563 184.761,146.23 181,150.5C 175.147,152.505 169.314,155.338 163.5,159C 162.207,159.49 160.873,159.657 159.5,159.5C 169.63,152.929 179.63,146.095 189.5,139C 191.066,138.235 192.399,138.402 193.5,139.5 Z"/></g>
<g><path style="opacity:1" fill="#fbc13c" d="M 35.5,138.5 C 35.6662,144.842 35.4995,151.175 35,157.5C 32.0996,160.175 30.933,163.509 31.5,167.5C 31.5391,169.952 32.2057,171.952 33.5,173.5C 32.4324,174.434 31.099,174.768 29.5,174.5C 30.9368,164.531 31.9368,154.531 32.5,144.5C 33.9851,142.751 34.9851,140.751 35.5,138.5 Z"/></g>
<g><path style="opacity:0.565" fill="#f3b478" d="M 89.5,147.5 C 87.2404,149.65 84.9071,151.817 82.5,154C 77.1386,156.676 72.1386,159.843 67.5,163.5C 73.762,156.701 81.0954,151.368 89.5,147.5 Z"/></g>
<g><path style="opacity:0.922" fill="#f2ac6c" d="M 193.5,125.5 C 173.014,141.305 151.681,155.972 129.5,169.5C 131.582,167.231 133.582,164.731 135.5,162C 146.544,156.966 156.544,150.3 165.5,142C 168.901,142.266 170.567,140.766 170.5,137.5C 174.196,136.108 177.863,134.775 181.5,133.5C 181.33,132.178 181.663,131.011 182.5,130C 186.086,128.232 189.753,126.732 193.5,125.5 Z"/></g>
<g><path style="opacity:0.773" fill="#fbcc66" d="M 58.5,157.5 C 52.4463,162.217 46.1129,166.55 39.5,170.5C 38.5,170.5 37.5,170.5 36.5,170.5C 38.756,167.595 41.756,165.928 45.5,165.5C 45.5291,162.344 47.1957,160.678 50.5,160.5C 51.3857,159.675 51.719,158.675 51.5,157.5C 53.8333,157.5 56.1667,157.5 58.5,157.5 Z"/></g>
<g><path style="opacity:0.969" fill="#5fbfdb" d="M 159.5,159.5 C 157.404,161.6 155.737,164.1 154.5,167C 147.221,170.032 140.221,173.532 133.5,177.5C 142.129,171.513 150.796,165.513 159.5,159.5 Z"/></g>
<g><path style="opacity:0.769" fill="#f8d280" d="M 32.5,144.5 C 31.9368,154.531 30.9368,164.531 29.5,174.5C 31.099,174.768 32.4324,174.434 33.5,173.5C 34.8333,172.833 35.8333,171.833 36.5,170.5C 37.5,170.5 38.5,170.5 39.5,170.5C 37.193,171.977 35.3597,173.977 34,176.5C 33.6667,176.167 33.3333,175.833 33,175.5C 31.4157,176.861 29.5824,177.528 27.5,177.5C 28.1347,168.196 29.468,159.029 31.5,150C 31.1667,149.667 30.8333,149.333 30.5,149C 31.0989,147.378 31.7656,145.878 32.5,144.5 Z"/></g>
<g><path style="opacity:0.569" fill="#f2ab6b" d="M 129.5,169.5 C 125.181,172.996 120.515,175.996 115.5,178.5C 115.703,176.956 116.37,175.622 117.5,174.5C 121.098,171.91 125.098,170.243 129.5,169.5 Z"/></g>
<g><path style="opacity:0.804" fill="#f3bd82" d="M 67.5,163.5 C 67.5,164.167 67.5,164.833 67.5,165.5C 66.8386,166.718 66.1719,168.051 65.5,169.5C 64.7262,178.062 63.3929,186.395 61.5,194.5C 61.7929,189.222 61.7929,184.056 61.5,179C 62.1667,176.667 62.8333,174.333 63.5,172C 63.1667,171.667 62.8333,171.333 62.5,171C 64.2669,168.456 65.9336,165.956 67.5,163.5 Z"/></g>
<g><path style="opacity:1" fill="#ef9549" d="M 67.5,165.5 C 67.6658,170.179 67.4992,174.845 67,179.5C 64.2973,186.843 62.964,194.51 63,202.5C 62.3292,203.252 61.4959,203.586 60.5,203.5C 61.299,200.57 61.6323,197.57 61.5,194.5C 63.3929,186.395 64.7262,178.062 65.5,169.5C 66.1719,168.051 66.8386,166.718 67.5,165.5 Z"/></g>
<g><path style="opacity:0.365" fill="#74c3dc" d="M 193.5,139.5 C 194.676,144.807 194.176,150.141 192,155.5C 191.667,162.833 191.333,170.167 191,177.5C 190.562,182.939 189.062,187.939 186.5,192.5C 186.536,188.021 187.369,183.688 189,179.5C 189.333,171.167 189.667,162.833 190,154.5C 192.332,149.815 193.498,144.815 193.5,139.5 Z"/></g>
<g><path style="opacity:0.161" fill="#87b3d1" d="M 220.5,182.5 C 218.704,184.9 216.37,186.567 213.5,187.5C 215.296,185.1 217.63,183.433 220.5,182.5 Z"/></g>
<g><path style="opacity:1" fill="#1155a6" d="M 229.5,202.5 C 229.668,208.034 230.335,213.367 231.5,218.5C 233.136,228.728 233.969,239.062 234,249.5C 234.671,250.252 235.504,250.586 236.5,250.5C 237.482,253.962 237.815,257.629 237.5,261.5C 237.245,268.444 238.245,275.111 240.5,281.5C 238.5,281.5 236.5,281.5 234.5,281.5C 235.263,280.732 236.263,280.232 237.5,280C 236.524,277.858 234.857,276.692 232.5,276.5C 186.522,277.323 140.522,277.823 94.5,278C 94.0426,278.414 93.7093,278.914 93.5,279.5C 139.332,280.167 184.998,280.833 230.5,281.5C 180.167,281.5 129.833,281.5 79.5,281.5C 79.5,280.833 79.5,280.167 79.5,279.5C 79.5,278.833 79.8333,278.5 80.5,278.5C 85.4773,276.011 90.4773,273.511 95.5,271C 98.8773,268.817 101.544,265.983 103.5,262.5C 108.562,260.934 112.896,258.267 116.5,254.5C 121.506,252.32 126.506,249.987 131.5,247.5C 131.433,244.234 133.099,242.734 136.5,243C 138.067,240.259 140.401,239.092 143.5,239.5C 143.351,238.448 143.517,237.448 144,236.5C 145.729,236.026 146.895,235.026 147.5,233.5C 151.392,231.938 154.725,229.605 157.5,226.5C 160.324,225.055 163.324,223.889 166.5,223C 167.337,221.989 167.67,220.822 167.5,219.5C 167.973,218.094 168.973,217.427 170.5,217.5C 175.102,216.87 178.436,214.537 180.5,210.5C 181.873,210.657 183.207,210.49 184.5,210C 185.989,208.532 187.323,207.032 188.5,205.5C 192.298,204.017 195.964,202.35 199.5,200.5C 203.006,201.088 205.673,202.922 207.5,206C 209.5,206.667 211.5,206.667 213.5,206C 214.451,205.282 214.617,204.449 214,203.5C 208.713,203.898 205.547,201.564 204.5,196.5C 207.114,196.723 208.781,195.556 209.5,193C 211.436,192.187 213.436,191.687 215.5,191.5C 215.5,190.5 215.5,189.5 215.5,188.5C 217.492,188.328 219.158,188.995 220.5,190.5C 221.223,187.93 222.39,185.597 224,183.5C 225.254,186.976 225.921,190.642 226,194.5C 227.892,196.887 229.058,199.553 229.5,202.5 Z"/></g>
<g><path style="opacity:0.745" fill="#6993c4" d="M 213.5,187.5 C 213.719,188.675 213.386,189.675 212.5,190.5C 210.026,191.32 207.693,192.32 205.5,193.5C 207.8,191.016 210.467,189.016 213.5,187.5 Z"/></g>
<g><path style="opacity:0.369" fill="#f2b071" d="M 115.5,178.5 C 105.25,186.008 95.0835,193.008 85,199.5C 81.8722,202.474 78.3722,204.807 74.5,206.5C 74.369,205.761 74.5357,205.094 75,204.5C 77.8668,202.676 80.3668,200.51 82.5,198C 84.2182,197.654 85.8849,197.154 87.5,196.5C 88.5794,194.457 90.246,193.124 92.5,192.5C 93.3857,191.675 93.719,190.675 93.5,189.5C 99.0239,186.572 104.691,183.905 110.5,181.5C 110.281,180.325 110.614,179.325 111.5,178.5C 112.726,179.363 114.06,179.363 115.5,178.5 Z"/></g>
<g><path style="opacity:1" fill="#4ebbd8" d="M 133.5,177.5 C 131.919,179.142 131.253,181.142 131.5,183.5C 128.869,185.709 125.203,187.209 120.5,188C 117.876,190.658 115.209,193.325 112.5,196C 113.458,197.147 113.125,198.147 111.5,199C 106.942,198.606 103.609,200.273 101.5,204C 94.0008,208.791 86.0008,212.791 77.5,216C 75.0868,218.333 72.7535,220.667 70.5,223C 67.7206,223.561 65.054,224.394 62.5,225.5C 65.3585,223.037 68.3585,220.537 71.5,218C 92.337,204.645 113.004,191.145 133.5,177.5 Z"/></g>
<g><path style="opacity:1" fill="#2360aa" d="M 220.5,182.5 C 222.5,182.5 224.5,182.5 226.5,182.5C 226.946,189.334 227.946,196.001 229.5,202.5C 229.058,199.553 227.892,196.887 226,194.5C 225.921,190.642 225.254,186.976 224,183.5C 222.39,185.597 221.223,187.93 220.5,190.5C 219.158,188.995 217.492,188.328 215.5,188.5C 215.5,189.5 215.5,190.5 215.5,191.5C 213.436,191.687 211.436,192.187 209.5,193C 208.781,195.556 207.114,196.723 204.5,196.5C 205.547,201.564 208.713,203.898 214,203.5C 214.617,204.449 214.451,205.282 213.5,206C 211.5,206.667 209.5,206.667 207.5,206C 205.673,202.922 203.006,201.088 199.5,200.5C 200.531,199.751 201.698,199.085 203,198.5C 203.366,196.548 204.199,194.882 205.5,193.5C 207.693,192.32 210.026,191.32 212.5,190.5C 213.386,189.675 213.719,188.675 213.5,187.5C 216.37,186.567 218.704,184.9 220.5,182.5 Z"/></g>
<g><path style="opacity:0.859" fill="#5985bd" d="M 205.5,193.5 C 204.199,194.882 203.366,196.548 203,198.5C 201.698,199.085 200.531,199.751 199.5,200.5C 195.964,202.35 192.298,204.017 188.5,205.5C 193.632,200.765 199.299,196.765 205.5,193.5 Z"/></g>
<g><path style="opacity:0.286" fill="#f2b67d" d="M 61.5,194.5 C 61.6323,197.57 61.299,200.57 60.5,203.5C 59.5325,206.445 59.3658,209.445 60,212.5C 61.0113,213.337 62.1779,213.67 63.5,213.5C 60.3829,217.632 58.3829,216.965 57.5,211.5C 58.1028,205.538 59.4362,199.871 61.5,194.5 Z"/></g>
<g><path style="opacity:0.633" fill="#7199c7" d="M 234.5,224.5 C 233.5,222.5 232.5,220.5 231.5,218.5C 230.335,213.367 229.668,208.034 229.5,202.5C 227.946,196.001 226.946,189.334 226.5,182.5C 224.5,182.5 222.5,182.5 220.5,182.5C 222.159,179.979 224.325,179.312 227,180.5C 228,183.833 229,187.167 230,190.5C 230.841,201.94 232.341,213.273 234.5,224.5 Z"/></g>
<g><path style="opacity:0.698" fill="#65bed9" d="M 168.5,205.5 C 160.183,211.661 151.517,217.328 142.5,222.5C 142.821,220.952 143.821,220.285 145.5,220.5C 145.343,219.127 145.51,217.793 146,216.5C 146.333,216.833 146.667,217.167 147,217.5C 152.394,214.364 157.56,210.864 162.5,207C 164.345,205.872 166.345,205.372 168.5,205.5 Z"/></g>
<g><path style="opacity:0.247" fill="#f3b87e" d="M 74.5,206.5 C 71.106,209.221 67.4394,211.554 63.5,213.5C 63.4142,212.504 63.7476,211.671 64.5,211C 67.54,208.78 70.8733,207.28 74.5,206.5 Z"/></g>
<g><path style="opacity:0.949" fill="#5b87be" d="M 188.5,205.5 C 187.323,207.032 185.989,208.532 184.5,210C 183.207,210.49 181.873,210.657 180.5,210.5C 182.629,208.05 185.296,206.383 188.5,205.5 Z"/></g>
<g><path style="opacity:0.231" fill="#7699c4" d="M 180.5,210.5 C 178.436,214.537 175.102,216.87 170.5,217.5C 173.475,214.677 176.808,212.344 180.5,210.5 Z"/></g>
<g><path style="opacity:0.949" fill="#5f88be" d="M 167.5,219.5 C 167.67,220.822 167.337,221.989 166.5,223C 163.324,223.889 160.324,225.055 157.5,226.5C 160.475,223.677 163.808,221.344 167.5,219.5 Z"/></g>
<g><path style="opacity:1" fill="#54bdd9" d="M 62.5,225.5 C 62.6495,226.552 62.4828,227.552 62,228.5C 56.4357,233.768 49.6024,237.601 41.5,240C 39.9326,242.741 37.5993,243.908 34.5,243.5C 43.5597,237.113 52.893,231.113 62.5,225.5 Z"/></g>
<g><path style="opacity:0.302" fill="#6b94c4" d="M 157.5,226.5 C 154.725,229.605 151.392,231.938 147.5,233.5C 150.275,230.395 153.608,228.062 157.5,226.5 Z"/></g>
<g><path style="opacity:1" fill="#4072b4" d="M 231.5,218.5 C 232.5,220.5 233.5,222.5 234.5,224.5C 234.5,225.167 234.5,225.833 234.5,226.5C 234.403,234.571 235.07,242.571 236.5,250.5C 235.504,250.586 234.671,250.252 234,249.5C 233.969,239.062 233.136,228.728 231.5,218.5 Z"/></g>
<g><path style="opacity:1" fill="#5681bb" d="M 147.5,233.5 C 146.895,235.026 145.729,236.026 144,236.5C 143.517,237.448 143.351,238.448 143.5,239.5C 140.401,239.092 138.067,240.259 136.5,243C 133.099,242.734 131.433,244.234 131.5,247.5C 126.506,249.987 121.506,252.32 116.5,254.5C 126.008,246.333 136.341,239.333 147.5,233.5 Z"/></g>
<g><path style="opacity:1" fill="#5cbeda" d="M 34.5,243.5 C 31.6466,249.634 26.98,253.801 20.5,256C 18.1636,258.613 15.1636,260.113 11.5,260.5C 8.99202,261.737 6.99202,263.57 5.5,266C 3.5273,266.495 1.5273,266.662 -0.5,266.5C -0.5,266.167 -0.5,265.833 -0.5,265.5C 1.59321,264.955 3.59321,264.122 5.5,263C 14.8503,255.994 24.517,249.494 34.5,243.5 Z"/></g>
<g><path style="opacity:0.392" fill="#6d96c5" d="M 116.5,254.5 C 112.896,258.267 108.562,260.934 103.5,262.5C 107.56,259.47 111.893,256.803 116.5,254.5 Z"/></g>
<g><path style="opacity:0.392" fill="#759cc7" d="M 234.5,226.5 C 236.919,241.354 239.252,256.354 241.5,271.5C 239.968,268.235 238.635,264.902 237.5,261.5C 237.815,257.629 237.482,253.962 236.5,250.5C 235.07,242.571 234.403,234.571 234.5,226.5 Z"/></g>
<g><path style="opacity:0.945" fill="#5dbcd8" d="M 85.5,261.5 C 77.2192,267.981 68.5525,273.981 59.5,279.5C 59.5,278.5 59.5,277.5 59.5,276.5C 63.7751,273.875 68.1084,271.209 72.5,268.5C 73.4287,267.311 73.762,265.978 73.5,264.5C 77.3458,262.942 81.3458,261.942 85.5,261.5 Z"/></g>
<g><path style="opacity:0.682" fill="#648cc0" d="M 103.5,262.5 C 101.544,265.983 98.8773,268.817 95.5,271C 90.4773,273.511 85.4773,276.011 80.5,278.5C 80.5,278.167 80.5,277.833 80.5,277.5C 88.0244,272.241 95.691,267.241 103.5,262.5 Z"/></g>
<g><path style="opacity:1" fill="#054da2" d="M 234.5,281.5 C 233.167,281.5 231.833,281.5 230.5,281.5C 184.998,280.833 139.332,280.167 93.5,279.5C 93.7093,278.914 94.0426,278.414 94.5,278C 140.522,277.823 186.522,277.323 232.5,276.5C 234.857,276.692 236.524,277.858 237.5,280C 236.263,280.232 235.263,280.732 234.5,281.5 Z"/></g>
<g><path style="opacity:0.302" fill="#81a6cb" d="M 241.5,271.5 C 242.369,273.984 243.036,276.651 243.5,279.5C 243.332,281.171 242.665,282.504 241.5,283.5C 241.5,283.167 241.5,282.833 241.5,282.5C 241.5,278.833 241.5,275.167 241.5,271.5 Z"/></g>
<g><path style="opacity:0.995" fill="#346bb1" d="M 237.5,261.5 C 238.635,264.902 239.968,268.235 241.5,271.5C 241.5,275.167 241.5,278.833 241.5,282.5C 187.331,282.832 133.331,282.499 79.5,281.5C 129.833,281.5 180.167,281.5 230.5,281.5C 231.833,281.5 233.167,281.5 234.5,281.5C 236.5,281.5 238.5,281.5 240.5,281.5C 238.245,275.111 237.245,268.444 237.5,261.5 Z"/></g>
<g><path style="opacity:0.985" fill="#5281bc" d="M 79.5,279.5 C 79.5,280.167 79.5,280.833 79.5,281.5C 133.331,282.499 187.331,282.832 241.5,282.5C 241.5,282.833 241.5,283.167 241.5,283.5C 199.997,283.168 158.663,283.501 117.5,284.5C 117.167,284.5 116.833,284.5 116.5,284.5C 104.007,283.669 91.34,283.169 78.5,283C 77.015,281.244 77.3484,280.077 79.5,279.5 Z"/></g>
<g><path style="opacity:0.728" fill="#8aaacb" d="M 80.5,277.5 C 80.5,277.833 80.5,278.167 80.5,278.5C 79.8333,278.5 79.5,278.833 79.5,279.5C 77.3484,280.077 77.015,281.244 78.5,283C 91.34,283.169 104.007,283.669 116.5,284.5C 109.549,284.817 102.716,284.817 96,284.5C 94.2367,284.975 92.57,285.642 91,286.5C 88.0581,286.454 85.0581,286.12 82,285.5C 80.2367,285.975 78.57,286.642 77,287.5C 75.1839,286.671 73.3506,285.837 71.5,285C 73.4679,281.194 76.4679,278.694 80.5,277.5 Z"/></g>
<g><path style="opacity:0.581" fill="#7d9fc8" d="M 117.5,284.5 C 158.663,283.501 199.997,283.168 241.5,283.5C 241.389,284.117 241.056,284.617 240.5,285C 232.588,285.183 224.754,285.683 217,286.5C 208.176,285.947 199.676,285.614 191.5,285.5C 184.167,284.167 176.833,284.167 169.5,285.5C 169.167,285.5 168.833,285.5 168.5,285.5C 161.352,284.508 154.019,284.175 146.5,284.5C 137.098,284.886 127.431,284.886 117.5,284.5 Z"/></g>
<g><path style="opacity:0.043" fill="#9cc0d3" d="M 146.5,284.5 C 154.019,284.175 161.352,284.508 168.5,285.5C 166.251,286.444 163.751,286.777 161,286.5C 156.066,285.856 151.233,285.19 146.5,284.5 Z"/></g>
<g><path style="opacity:0.133" fill="#99b7cc" d="M 169.5,285.5 C 176.833,284.167 184.167,284.167 191.5,285.5C 184.714,285.774 177.38,285.774 169.5,285.5 Z"/></g>
</svg>
