<?xml version="1.0" encoding="UTF-8"?>
<!DOCTYPE svg PUBLIC "-//W3C//DTD SVG 1.1//EN" "http://www.w3.org/Graphics/SVG/1.1/DTD/svg11.dtd">
<svg xmlns="http://www.w3.org/2000/svg" version="1.1" width="26px" height="24px" style="shape-rendering:geometricPrecision; text-rendering:geometricPrecision; image-rendering:optimizeQuality; fill-rule:evenodd; clip-rule:evenodd" xmlns:xlink="http://www.w3.org/1999/xlink">
<g><path style="opacity:1" fill="#f9f9fe" d="M -0.5,-0.5 C 8.16667,-0.5 16.8333,-0.5 25.5,-0.5C 25.5,7.5 25.5,15.5 25.5,23.5C 16.8333,23.5 8.16667,23.5 -0.5,23.5C -0.5,15.5 -0.5,7.5 -0.5,-0.5 Z"/></g>
<g><path style="opacity:1" fill="#4967e8" d="M 10.5,2.5 C 11.2891,2.78281 11.9558,3.28281 12.5,4C 10.393,5.26351 9.39297,7.09685 9.5,9.5C 7.40041,9.47724 5.56708,10.1439 4,11.5C 3.5,11.1667 3,10.8333 2.5,10.5C 6.13501,8.86505 8.80167,6.19839 10.5,2.5 Z"/></g>
<g><path style="opacity:1" fill="#4362e7" d="M 13.5,2.5 C 14.2389,2.36899 14.9056,2.53566 15.5,3C 16.403,6.90385 18.7363,9.57052 22.5,11C 20.5292,11.0144 18.5292,10.6811 16.5,10C 15.3578,7.55012 14.3578,5.05012 13.5,2.5 Z"/></g>
<g><path style="opacity:1" fill="#4465e7" d="M 12.5,21.5 C 11.6136,22.7759 10.6136,22.7759 9.5,21.5C 8.36639,17.8668 6.03306,15.3668 2.5,14C 3,13.5 3.5,13 4,12.5C 5.24186,13.8721 6.74186,14.8721 8.5,15.5C 9.8567,17.5654 11.19,19.5654 12.5,21.5 Z"/></g>
<g><path style="opacity:1" fill="#4765e7" d="M 12.5,21.5 C 13.5964,16.739 16.5964,14.0723 21.5,13.5C 21.8333,13.8333 22.1667,14.1667 22.5,14.5C 20.9991,15.7515 19.3325,16.7515 17.5,17.5C 16.3333,19.1667 15.1667,20.8333 14,22.5C 13.6174,21.944 13.1174,21.6107 12.5,21.5 Z"/></g>
</svg>
