<?xml version="1.0" encoding="UTF-8"?>
<!DOCTYPE svg PUBLIC "-//W3C//DTD SVG 1.1//EN" "http://www.w3.org/Graphics/SVG/1.1/DTD/svg11.dtd">
<svg xmlns="http://www.w3.org/2000/svg" version="1.1" width="51px" height="43px" style="shape-rendering:geometricPrecision; text-rendering:geometricPrecision; image-rendering:optimizeQuality; fill-rule:evenodd; clip-rule:evenodd" xmlns:xlink="http://www.w3.org/1999/xlink">
<g><path style="opacity:1" fill="#fafbfe" d="M -0.5,-0.5 C 16.5,-0.5 33.5,-0.5 50.5,-0.5C 50.5,13.8333 50.5,28.1667 50.5,42.5C 33.5,42.5 16.5,42.5 -0.5,42.5C -0.5,28.1667 -0.5,13.8333 -0.5,-0.5 Z"/></g>
<g><path style="opacity:1" fill="#3b5ee6" d="M 16.5,2.5 C 19.4206,2.14591 21.7539,3.14591 23.5,5.5C 31.5334,1.50338 34.8668,3.83672 33.5,12.5C 36.5,12.5 39.5,12.5 42.5,12.5C 40.3883,21.0466 39.0549,29.88 38.5,39C 28.8333,39.6667 19.1667,39.6667 9.5,39C 7.96942,32.0907 6.30275,25.2574 4.5,18.5C 4.83333,16.8333 5.16667,15.1667 5.5,13.5C 8.17673,12.9258 10.8434,12.2592 13.5,11.5C 12.5153,9.90167 12.3486,8.23501 13,6.5C 14.1022,5.05104 15.2689,3.7177 16.5,2.5 Z"/></g>
<g><path style="opacity:1" fill="#ebeefc" d="M 16.5,5.5 C 21.016,5.48066 23.016,7.81399 22.5,12.5C 18.7292,13.2263 16.0626,11.893 14.5,8.5C 15.1925,7.48224 15.8592,6.48224 16.5,5.5 Z"/></g>
<g><path style="opacity:1" fill="#eceffc" d="M 26.5,5.5 C 32.5995,5.71384 33.5995,7.88051 29.5,12C 27.8659,12.4935 26.1992,12.6602 24.5,12.5C 24.3939,9.92138 25.0605,7.58805 26.5,5.5 Z"/></g>
<g><path style="opacity:1" fill="#f5f7fd" d="M 6.5,15.5 C 11.8333,15.5 17.1667,15.5 22.5,15.5C 22.5,17.5 22.5,19.5 22.5,21.5C 17.1667,21.5 11.8333,21.5 6.5,21.5C 6.5,19.5 6.5,17.5 6.5,15.5 Z"/></g>
<g><path style="opacity:1" fill="#f5f7fd" d="M 24.5,15.5 C 29.8333,15.5 35.1667,15.5 40.5,15.5C 40.5,17.5 40.5,19.5 40.5,21.5C 35.1667,21.5 29.8333,21.5 24.5,21.5C 24.5,19.5 24.5,17.5 24.5,15.5 Z"/></g>
<g><path style="opacity:1" fill="#f3f5fd" d="M 9.5,24.5 C 13.8333,24.5 18.1667,24.5 22.5,24.5C 22.5,28.5 22.5,32.5 22.5,36.5C 18.1667,36.5 13.8333,36.5 9.5,36.5C 9.5,32.5 9.5,28.5 9.5,24.5 Z"/></g>
<g><path style="opacity:1" fill="#f3f5fd" d="M 24.5,24.5 C 28.8333,24.5 33.1667,24.5 37.5,24.5C 37.5,28.5 37.5,32.5 37.5,36.5C 33.1667,36.5 28.8333,36.5 24.5,36.5C 24.5,32.5 24.5,28.5 24.5,24.5 Z"/></g>
</svg>
