<?xml version="1.0" encoding="UTF-8"?>
<!DOCTYPE svg PUBLIC "-//W3C//DTD SVG 1.1//EN" "http://www.w3.org/Graphics/SVG/1.1/DTD/svg11.dtd">
<svg xmlns="http://www.w3.org/2000/svg" version="1.1" width="35px" height="28px" style="shape-rendering:geometricPrecision; text-rendering:geometricPrecision; image-rendering:optimizeQuality; fill-rule:evenodd; clip-rule:evenodd" xmlns:xlink="http://www.w3.org/1999/xlink">
<g><path style="opacity:1" fill="#fbfbfe" d="M -0.5,-0.5 C 2.16667,-0.5 4.83333,-0.5 7.5,-0.5C 2.33787,3.37588 1.1712,8.37588 4,14.5C 14.5112,29.7415 23.5112,28.7415 31,11.5C 32.6252,5.75704 30.7919,1.75704 25.5,-0.5C 28.5,-0.5 31.5,-0.5 34.5,-0.5C 34.5,8.83333 34.5,18.1667 34.5,27.5C 22.8333,27.5 11.1667,27.5 -0.5,27.5C -0.5,18.1667 -0.5,8.83333 -0.5,-0.5 Z"/></g>
<g><path style="opacity:1" fill="#516de9" d="M 7.5,-0.5 C 9.16667,-0.5 10.8333,-0.5 12.5,-0.5C 14.1032,0.596413 15.6032,1.92975 17,3.5C 18.3968,1.92975 19.8968,0.596413 21.5,-0.5C 22.8333,-0.5 24.1667,-0.5 25.5,-0.5C 30.7919,1.75704 32.6252,5.75704 31,11.5C 23.5112,28.7415 14.5112,29.7415 4,14.5C 1.1712,8.37588 2.33787,3.37588 7.5,-0.5 Z"/></g>
<g><path style="opacity:1" fill="#f9fafe" d="M 7.5,1.5 C 11.3872,0.945393 14.3872,2.27873 16.5,5.5C 20.9594,0.220355 25.4594,0.220355 30,5.5C 29.4382,14.2572 25.1049,20.5906 17,24.5C 10.4069,20.4164 5.90692,14.7497 3.5,7.5C 4.43161,5.23453 5.76494,3.23453 7.5,1.5 Z"/></g>
<g><path style="opacity:1" fill="#f2f4fd" d="M 12.5,-0.5 C 15.5,-0.5 18.5,-0.5 21.5,-0.5C 19.8968,0.596413 18.3968,1.92975 17,3.5C 15.6032,1.92975 14.1032,0.596413 12.5,-0.5 Z"/></g>
</svg>
