<?xml version="1.0" encoding="UTF-8"?>
<!DOCTYPE svg PUBLIC "-//W3C//DTD SVG 1.1//EN" "http://www.w3.org/Graphics/SVG/1.1/DTD/svg11.dtd">
<svg xmlns="http://www.w3.org/2000/svg" version="1.1" width="23px" height="25px" style="shape-rendering:geometricPrecision; text-rendering:geometricPrecision; image-rendering:optimizeQuality; fill-rule:evenodd; clip-rule:evenodd" xmlns:xlink="http://www.w3.org/1999/xlink">
<g><path style="opacity:1" fill="#fafafe" d="M -0.5,-0.5 C 7.16667,-0.5 14.8333,-0.5 22.5,-0.5C 22.5,7.83333 22.5,16.1667 22.5,24.5C 14.8333,24.5 7.16667,24.5 -0.5,24.5C -0.5,16.1667 -0.5,7.83333 -0.5,-0.5 Z"/></g>
<g><path style="opacity:1" fill="#5e7aeb" d="M 3.5,2.5 C 7.67593,1.83068 9.00926,3.33068 7.5,7C 8.44802,7.48278 9.44802,7.64945 10.5,7.5C 10.5792,6.06953 10.2458,4.73619 9.5,3.5C 10.8333,2.16667 12.1667,2.16667 13.5,3.5C 12.4252,6.43804 12.2585,9.43804 13,12.5C 14,11.1667 15,11.1667 16,12.5C 17.6263,15.0583 18.6263,17.725 19,20.5C 16.1973,17.8975 13.364,17.8975 10.5,20.5C 10.1667,20.1667 9.83333,19.8333 9.5,19.5C 10.7515,17.9991 11.7515,16.3325 12.5,14.5C 11.1735,12.6887 10.1735,10.6887 9.5,8.5C 8.74173,12.1794 6.74173,13.1794 3.5,11.5C 2.1666,10.3801 1.6666,9.04675 2,7.5C 5.76939,11.6637 6.60273,11.497 4.5,7C 5.30806,6.69238 5.97473,6.19238 6.5,5.5C 5.00654,4.85892 4.00654,3.85892 3.5,2.5 Z"/></g>
<g><path style="opacity:1" fill="#e8ecfc" d="M 14.5,13.5 C 17.4809,16.1224 17.1476,16.789 13.5,15.5C 13.8627,14.8165 14.1961,14.1499 14.5,13.5 Z"/></g>
</svg>
