<?xml version="1.0" encoding="UTF-8"?>
<!DOCTYPE svg PUBLIC "-//W3C//DTD SVG 1.1//EN" "http://www.w3.org/Graphics/SVG/1.1/DTD/svg11.dtd">
<svg xmlns="http://www.w3.org/2000/svg" version="1.1" width="21px" height="25px" style="shape-rendering:geometricPrecision; text-rendering:geometricPrecision; image-rendering:optimizeQuality; fill-rule:evenodd; clip-rule:evenodd" xmlns:xlink="http://www.w3.org/1999/xlink">
<g><path style="opacity:1" fill="#fbfcfe" d="M -0.5,-0.5 C 6.5,-0.5 13.5,-0.5 20.5,-0.5C 20.5,7.83333 20.5,16.1667 20.5,24.5C 13.5,24.5 6.5,24.5 -0.5,24.5C -0.5,16.1667 -0.5,7.83333 -0.5,-0.5 Z"/></g>
<g><path style="opacity:1" fill="#5f77ea" d="M 15.5,12.5 C 15.2562,15.2626 13.9229,17.4293 11.5,19C 12.938,19.2189 14.2713,19.7189 15.5,20.5C 11.1667,21.8333 6.83333,21.8333 2.5,20.5C 3.72865,19.7189 5.06199,19.2189 6.5,19C 0.0985823,13.1655 0.0985823,7.49885 6.5,2C 14.5466,1.52975 17.5466,5.02975 15.5,12.5 Z"/></g>
<g><path style="opacity:1" fill="#eff1fd" d="M 15.5,12.5 C 10.9921,20.6705 7.15879,20.3371 4,11.5C 3.33246,5.17143 6.16579,2.67143 12.5,4C 15.1252,6.19617 16.1252,9.0295 15.5,12.5 Z"/></g>
<g><path style="opacity:1" fill="#546ee9" d="M 7.5,11.5 C 5.39947,7.16926 6.73281,5.33593 11.5,6C 12.5762,7.72609 12.7429,9.55942 12,11.5C 10.3845,12.8009 8.88448,12.8009 7.5,11.5 Z"/></g>
<g><path style="opacity:1" fill="#e4e8fb" d="M 7.5,11.5 C 7.06577,8.83381 8.06577,7.66714 10.5,8C 11.694,10.6578 10.694,11.8244 7.5,11.5 Z"/></g>
</svg>
