<?xml version="1.0" encoding="UTF-8"?>
<!DOCTYPE svg PUBLIC "-//W3C//DTD SVG 1.1//EN" "http://www.w3.org/Graphics/SVG/1.1/DTD/svg11.dtd">
<svg xmlns="http://www.w3.org/2000/svg" version="1.1" width="43px" height="45px" style="shape-rendering:geometricPrecision; text-rendering:geometricPrecision; image-rendering:optimizeQuality; fill-rule:evenodd; clip-rule:evenodd" xmlns:xlink="http://www.w3.org/1999/xlink">
<g><path style="opacity:1" fill="#f9fafe" d="M -0.5,-0.5 C 13.8333,-0.5 28.1667,-0.5 42.5,-0.5C 42.5,14.5 42.5,29.5 42.5,44.5C 28.1667,44.5 13.8333,44.5 -0.5,44.5C -0.5,29.5 -0.5,14.5 -0.5,-0.5 Z"/></g>
<g><path style="opacity:1" fill="#4363e7" d="M 13.5,4.5 C 25.3841,2.18825 33.5508,6.52159 38,17.5C 38.6667,23.8333 38.6667,30.1667 38,36.5C 37.4257,38.492 36.259,39.992 34.5,41C 29.798,41.8283 25.1313,41.6616 20.5,40.5C 24.7956,39.6725 29.1289,39.1725 33.5,39C 34.3567,38.3109 35.0233,37.4776 35.5,36.5C 32.7428,35.9708 30.2428,34.9708 28,33.5C 27.3333,29.5 27.3333,25.5 28,21.5C 30.4728,20.8803 32.9728,20.2136 35.5,19.5C 31.5258,7.84552 23.8591,4.34552 12.5,9C 8.48772,11.8657 6.15438,15.699 5.5,20.5C 8.1194,20.2317 10.6194,20.565 13,21.5C 13.9956,26.2288 13.4956,30.7288 11.5,35C 3.79844,36.3673 0.798438,33.0339 2.5,25C 2.35925,16.1144 6.02592,9.28104 13.5,4.5 Z"/></g>
<g><path style="opacity:1" fill="#fbfbfe" d="M 5.5,23.5 C 7.16667,23.5 8.83333,23.5 10.5,23.5C 10.5,26.5 10.5,29.5 10.5,32.5C 8.83333,32.5 7.16667,32.5 5.5,32.5C 5.5,29.5 5.5,26.5 5.5,23.5 Z"/></g>
<g><path style="opacity:1" fill="#f3f4fd" d="M 30.5,22.5 C 32.1667,22.5 33.8333,22.5 35.5,22.5C 35.6646,25.5184 35.498,28.5184 35,31.5C 33.6439,32.3802 32.1439,32.7135 30.5,32.5C 30.5,29.1667 30.5,25.8333 30.5,22.5 Z"/></g>
</svg>
