<?xml version="1.0" encoding="UTF-8"?>
<!DOCTYPE svg PUBLIC "-//W3C//DTD SVG 1.1//EN" "http://www.w3.org/Graphics/SVG/1.1/DTD/svg11.dtd">
<svg xmlns="http://www.w3.org/2000/svg" version="1.1" width="25px" height="23px" style="shape-rendering:geometricPrecision; text-rendering:geometricPrecision; image-rendering:optimizeQuality; fill-rule:evenodd; clip-rule:evenodd" xmlns:xlink="http://www.w3.org/1999/xlink">
<g><path style="opacity:1" fill="#f4f5fd" d="M -0.5,-0.5 C 7.83333,-0.5 16.1667,-0.5 24.5,-0.5C 24.5,7.16667 24.5,14.8333 24.5,22.5C 16.1667,22.5 7.83333,22.5 -0.5,22.5C -0.5,14.8333 -0.5,7.16667 -0.5,-0.5 Z"/></g>
<g><path style="opacity:1" fill="#5471e9" d="M 8.5,1.5 C 16.3204,2.48374 16.3204,3.31708 8.5,4C 7.66667,4.83333 6.83333,5.66667 6,6.5C 6.05789,4.5646 6.89122,2.89793 8.5,1.5 Z"/></g>
<g><path style="opacity:1" fill="#6078ea" d="M 12.5,10.5 C 10.7512,7.00778 11.9179,5.00778 16,4.5C 21.9521,5.89439 22.7854,8.72772 18.5,13C 16.8333,13.6667 15.1667,13.6667 13.5,13C 12.7476,12.3292 12.4142,11.4959 12.5,10.5 Z"/></g>
<g><path style="opacity:1" fill="#dee4fb" d="M 12.5,10.5 C 12.2003,7.75603 13.367,6.08936 16,5.5C 20.6667,7.5 20.6667,9.5 16,11.5C 14.7441,11.3517 13.5774,11.0184 12.5,10.5 Z"/></g>
<g><path style="opacity:1" fill="#7b8cee" d="M 14.5,6.5 C 15.5,6.5 16.5,6.5 17.5,6.5C 17.5,7.83333 17.5,9.16667 17.5,10.5C 16.5,10.5 15.5,10.5 14.5,10.5C 14.5,9.16667 14.5,7.83333 14.5,6.5 Z"/></g>
<g><path style="opacity:1" fill="#4162e7" d="M 3.5,13.5 C 4.40397,14.209 4.73731,15.209 4.5,16.5C 9.64827,17.0736 14.4816,16.407 19,14.5C 19.4828,15.448 19.6495,16.448 19.5,17.5C 16.5034,18.1412 13.8367,19.4745 11.5,21.5C 9.16329,19.4745 6.49662,18.1412 3.5,17.5C 3.5,16.1667 3.5,14.8333 3.5,13.5 Z"/></g>
<g><path style="opacity:1" fill="#d3dbf9" d="M 9.5,17.5 C 10.9778,17.238 12.3112,17.5713 13.5,18.5C 12.8333,18.8333 12.1667,19.1667 11.5,19.5C 10.2867,19.2528 9.61998,18.5862 9.5,17.5 Z"/></g>
</svg>
