<?xml version="1.0" encoding="UTF-8"?>
<!DOCTYPE svg PUBLIC "-//W3C//DTD SVG 1.1//EN" "http://www.w3.org/Graphics/SVG/1.1/DTD/svg11.dtd">
<svg xmlns="http://www.w3.org/2000/svg" version="1.1" width="37px" height="37px" style="shape-rendering:geometricPrecision; text-rendering:geometricPrecision; image-rendering:optimizeQuality; fill-rule:evenodd; clip-rule:evenodd" xmlns:xlink="http://www.w3.org/1999/xlink">
<g><path style="opacity:1" fill="#fdfdfe" d="M -0.5,-0.5 C 11.8333,-0.5 24.1667,-0.5 36.5,-0.5C 36.5,11.8333 36.5,24.1667 36.5,36.5C 24.1667,36.5 11.8333,36.5 -0.5,36.5C -0.5,24.1667 -0.5,11.8333 -0.5,-0.5 Z"/></g>
<g><path style="opacity:1" fill="#4f6be8" d="M 16.5,4.5 C 21.4642,5.94852 26.1308,8.11519 30.5,11C 31.8042,16.1139 31.8042,21.2805 30.5,26.5C 26.3982,28.9671 22.2315,31.3004 18,33.5C 13.0981,31.7552 8.76481,29.0885 5,25.5C 4.33333,20.8333 4.33333,16.1667 5,11.5C 8.81375,9.01553 12.6471,6.68219 16.5,4.5 Z"/></g>
<g><path style="opacity:1" fill="#edf0fc" d="M 9.5,10.5 C 14.001,10.9993 18.001,12.666 21.5,15.5C 20.1311,17.124 18.4645,17.624 16.5,17C 14.0038,15.9196 11.6705,14.5862 9.5,13C 8.40191,12.2303 8.40191,11.397 9.5,10.5 Z"/></g>
<g><path style="opacity:1" fill="#edf0fc" d="M 16.5,6.5 C 20.3811,7.77386 24.0478,9.60719 27.5,12C 26.4214,12.956 25.2547,13.7894 24,14.5C 20.8333,12.6667 17.6667,10.8333 14.5,9C 15.3805,8.2917 16.0472,7.45837 16.5,6.5 Z"/></g>
<g><path style="opacity:1" fill="#f2f4fd" d="M 6.5,14.5 C 10.0078,15.5041 13.1745,17.1707 16,19.5C 16.6667,23.1667 16.6667,26.8333 16,30.5C 13.0844,28.9594 10.2511,27.2927 7.5,25.5C 6.51078,21.8927 6.17744,18.226 6.5,14.5 Z"/></g>
<g><path style="opacity:1" fill="#edf0fc" d="M 28.5,13.5 C 29.8095,17.3507 29.8095,21.3507 28.5,25.5C 25.7489,27.2927 22.9156,28.9594 20,30.5C 19.3333,26.8333 19.3333,23.1667 20,19.5C 20.6891,18.6433 21.5224,17.9767 22.5,17.5C 23.1667,19.1667 23.8333,20.8333 24.5,22.5C 25.007,18.9977 26.3403,15.9977 28.5,13.5 Z"/></g>
</svg>
