<svg width="20" height="20" viewBox="0 0 16 16" fill="none" xmlns="http://www.w3.org/2000/svg" > <path d="M7.70068 9.56354C9.90982 9.56354 11.7007 7.77268 11.7007 5.56354C11.7007 3.3544 9.90982 1.56354 7.70068 1.56354C5.49154 1.56354 3.70068 3.3544 3.70068 5.56354C3.70068 7.77268 5.49154 9.56354 7.70068 9.56354Z" stroke="black" stroke-width="1.2" stroke-miterlimit="10" /> <path d="M1.63818 13.0635C2.25252 11.9993 3.1362 11.1155 4.2004 10.501C5.26461 9.88649 6.47182 9.56299 7.70068 9.56299C8.28364 9.56299 8.86172 9.63579 9.42198 9.77792C9.78986 9.87125 10.1501 9.99447 10.4989 10.1466" stroke="black" stroke-width="1.2" stroke-linecap="round" stroke-linejoin="round" /> <path d="M14.5877 10.5123L10.7383 14.3618L8.8136 12.437" stroke="black" stroke-width="1.2" stroke-linecap="round" stroke-linejoin="round" /> </svg> 
