<?xml version="1.0" encoding="UTF-8"?>
<!DOCTYPE svg PUBLIC "-//W3C//DTD SVG 1.1//EN" "http://www.w3.org/Graphics/SVG/1.1/DTD/svg11.dtd">
<svg xmlns="http://www.w3.org/2000/svg" version="1.1" width="22px" height="23px" style="shape-rendering:geometricPrecision; text-rendering:geometricPrecision; image-rendering:optimizeQuality; fill-rule:evenodd; clip-rule:evenodd" xmlns:xlink="http://www.w3.org/1999/xlink">
<g><path style="opacity:1" fill="#fbfcfe" d="M -0.5,-0.5 C 6.83333,-0.5 14.1667,-0.5 21.5,-0.5C 21.5,7.16667 21.5,14.8333 21.5,22.5C 14.1667,22.5 6.83333,22.5 -0.5,22.5C -0.5,14.8333 -0.5,7.16667 -0.5,-0.5 Z"/></g>
<g><path style="opacity:1" fill="#4f6ce8" d="M 7.5,1.5 C 16.2437,1.41262 18.5771,5.24595 14.5,13C 16.6089,14.1411 18.4422,15.6411 20,17.5C 20.6877,18.3317 20.521,18.9984 19.5,19.5C 13.5341,12.9206 7.5341,12.9206 1.5,19.5C 1.16667,19.1667 0.833333,18.8333 0.5,18.5C 2.02433,16.1421 4.02433,14.3088 6.5,13C 3.61574,8.82617 3.94908,4.99284 7.5,1.5 Z"/></g>
<g><path style="opacity:1" fill="#f8f9fe" d="M 7.5,3.5 C 14.9266,2.74195 16.9266,5.57528 13.5,12C 6.13325,12.7467 4.13325,9.91336 7.5,3.5 Z"/></g>
</svg>
