<?xml version="1.0" encoding="UTF-8"?>
<!DOCTYPE svg PUBLIC "-//W3C//DTD SVG 1.1//EN" "http://www.w3.org/Graphics/SVG/1.1/DTD/svg11.dtd">
<svg xmlns="http://www.w3.org/2000/svg" version="1.1" width="24px" height="19px" style="shape-rendering:geometricPrecision; text-rendering:geometricPrecision; image-rendering:optimizeQuality; fill-rule:evenodd; clip-rule:evenodd" xmlns:xlink="http://www.w3.org/1999/xlink">
<g><path style="opacity:1" fill="#f9fafe" d="M -0.5,-0.5 C 7.5,-0.5 15.5,-0.5 23.5,-0.5C 23.5,5.83333 23.5,12.1667 23.5,18.5C 15.5,18.5 7.5,18.5 -0.5,18.5C -0.5,12.1667 -0.5,5.83333 -0.5,-0.5 Z"/></g>
<g><path style="opacity:1" fill="#6181ec" d="M 18.5,3.5 C 17.8333,3.5 17.5,3.83333 17.5,4.5C 12.5,4.5 7.5,4.5 2.5,4.5C 2.5,8.16667 2.5,11.8333 2.5,15.5C 2.16667,15.5 1.83333,15.5 1.5,15.5C 0.177959,11.4336 0.177959,7.26694 1.5,3C 7.34875,2.18163 13.0154,2.3483 18.5,3.5 Z"/></g>
<g><path style="opacity:1" fill="#f3f5fd" d="M 17.5,4.5 C 18.0431,4.55999 18.3764,4.89333 18.5,5.5C 16.5767,6.30779 14.5767,6.80779 12.5,7C 11.0652,9.26724 11.3985,11.2672 13.5,13C 15.2556,13.2022 16.9223,13.7022 18.5,14.5C 13.2079,15.4948 7.8746,15.8282 2.5,15.5C 2.5,11.8333 2.5,8.16667 2.5,4.5C 7.5,4.5 12.5,4.5 17.5,4.5 Z"/></g>
<g><path style="opacity:1" fill="#3c5fe6" d="M 17.5,4.5 C 17.5,3.83333 17.8333,3.5 18.5,3.5C 19.7342,5.20142 20.4008,7.20142 20.5,9.5C 20.0029,11.8183 19.6695,14.1516 19.5,16.5C 13.31,16.8229 7.31004,16.4896 1.5,15.5C 1.83333,15.5 2.16667,15.5 2.5,15.5C 7.8746,15.8282 13.2079,15.4948 18.5,14.5C 16.9223,13.7022 15.2556,13.2022 13.5,13C 11.3985,11.2672 11.0652,9.26724 12.5,7C 14.5767,6.80779 16.5767,6.30779 18.5,5.5C 18.3764,4.89333 18.0431,4.55999 17.5,4.5 Z"/></g>
<g><path style="opacity:1" fill="#cfd6f9" d="M 13.5,7.5 C 15.5,7.5 17.5,7.5 19.5,7.5C 19.5,8.83333 19.5,10.1667 19.5,11.5C 17.4727,11.6621 15.4727,11.4955 13.5,11C 12.3157,9.85453 12.3157,8.68787 13.5,7.5 Z"/></g>
</svg>
